# xmcd CD database file
#
# Track frame offsets:
#	150
#	12610
#	26552
#	39194
#	51020
#	65617
#	79086
#	93957
#	109084
#	123056
#	137297
#	152703
#	164960
#	177958
#	206652
#	222166
#	236595
#	249584
#	274474
#	288708
#
# Disc length: 4001 seconds
#
# Revision: 4
# Processed by: cddbd v1.5.2PL0 Copyright (c) Steve Scherf et al.
# Submitted via: CDex 1.51
#
DISCID=200f9f14
DTITLE=Various Artist - Jazz Legends  [CD 3-3]
DYEAR=2002
DGENRE=Jazz
TTITLE0=Ella Fitzgerald - It's Only A Paper Moon
TTITLE1=Wardell Gray Quartet - Easy Swing
TTITLE2=Roy Eldridge and His Orchestra - Muskrat Ramble
TTITLE3=Thelonius Monk Quartet Featuring Milt Jackson - Evidence
TTITLE4=Artie Shaw - Thou Swell
TTITLE5=Don Byas With Hot Lips Page and His Orchestra - These Foolish Things
TTITLE6=Ike Quebec Quintet - Girl Of My Dreams
TTITLE7=Coleman Hawkins - What A Difference A Day Made
TTITLE8=Fats Waller (Solo Piano) - Georgia On My Mind
TTITLE9=Dizzy Gillespie - Manteca
TTITLE10=Anita O'day With Gene Krupa and His Orchestra - Boogie Blues
TTITLE11=Oscar Pettiford Quintet - Oscalypso
TTITLE12=Louis Prima and His New Orleans Gang - Sweet Sue, Just You
TTITLE13=Miles Davis Sextet - The Chase
TTITLE14=Duke Ellington - Stomp, Look And Listen
TTITLE15=Sidney Bechet - The Mooche
TTITLE16=Red Norvo and His Swing Octet featuring Teddy Wilson and Bunny Berigan - Bughouse
TTITLE17=Count Basie Featuring Lester Young, Buddy Tate, Jo Jones and Vic Dickenson - The World Is Mad (Parts 1 and 2)
TTITLE18=Django Reinhardt, Stephane Grappelli and The Quintet Of The Hot Club Of France - Sweet Georgia Brown
TTITLE19=Art Tatum, Solo Piano - St. Louis Blues
EXTD=YEAR: 2002
EXTT0=1923
EXTT1=
EXTT2=
EXTT3=
EXTT4=1936
EXTT5=
EXTT6=
EXTT7=1935
EXTT8=
EXTT9=
EXTT10=1945
EXTT11=
EXTT12=
EXTT13=
EXTT14=1947
EXTT15=1941
EXTT16=
EXTT17=
EXTT18=1938
EXTT19=
PLAYORDER=
